<svg width="20" height="21" viewBox="0 0 20 21" fill="none" xmlns="http://www.w3.org/2000/svg">
<g id="Notification">
<path id="Vector" d="M8.33521 4.5485C8.33521 4.10648 8.5108 3.68255 8.82336 3.36999C9.13592 3.05743 9.55984 2.88184 10.0019 2.88184C10.4439 2.88184 10.8678 3.05743 11.1804 3.36999C11.4929 3.68255 11.6685 4.10648 11.6685 4.5485C12.6255 5.00103 13.4414 5.70544 14.0286 6.58625C14.6158 7.46706 14.9522 8.49106 15.0019 9.5485V12.0485C15.0646 12.5666 15.2481 13.0627 15.5375 13.4969C15.827 13.9312 16.2144 14.2913 16.6685 14.5485H3.33521C3.78932 14.2913 4.17671 13.9312 4.46619 13.4969C4.75568 13.0627 4.93916 12.5666 5.00187 12.0485V9.5485C5.05151 8.49106 5.38796 7.46706 5.97516 6.58625C6.56237 5.70544 7.3782 5.00103 8.33521 4.5485" stroke="#004390" stroke-width="1.5" stroke-linecap="round" stroke-linejoin="round"/>
<path id="Vector_2" d="M7.49719 14.5483V15.3817C7.49719 16.0447 7.76058 16.6806 8.22943 17.1494C8.69827 17.6183 9.33415 17.8817 9.99719 17.8817C10.6602 17.8817 11.2961 17.6183 11.765 17.1494C12.2338 16.6806 12.4972 16.0447 12.4972 15.3817V14.5483" stroke="#004390" stroke-width="1.5" stroke-linecap="round" stroke-linejoin="round"/>
</g>
</svg>
