<svg width="24" height="25" viewBox="0 0 24 25" fill="none" xmlns="http://www.w3.org/2000/svg">
<path d="M3.1875 4.65259L6.6875 7.37134C8.09375 6.30884 9.84375 5.46509 12 5.46509C14.5 5.46509 16.5312 6.62134 18 7.99634C19.4688 9.34009 20.4375 10.9651 20.9062 12.0901C21 12.3401 21 12.6213 20.9062 12.8713C20.5 13.8713 19.6562 15.3088 18.4062 16.5588L21.6875 19.1526C22.0312 19.4026 22.0938 19.8713 21.8125 20.1838C21.5625 20.5276 21.0938 20.5901 20.7812 20.3088L2.28125 5.80884C1.9375 5.55884 1.875 5.09009 2.15625 4.77759C2.40625 4.43384 2.875 4.37134 3.1875 4.65259ZM7.90625 8.34009L9.34375 9.46509C10.0625 8.84009 10.9688 8.46509 12 8.46509C14.1875 8.46509 16 10.2776 16 12.4651C16 13.1526 15.8438 13.7776 15.5312 14.3088L17.2188 15.6213C18.3125 14.5588 19.0625 13.3401 19.4375 12.4651C19.0312 11.5276 18.1875 10.2151 16.9688 9.09009C15.6875 7.90259 14.0312 6.96509 12 6.96509C10.4062 6.96509 9.0625 7.52759 7.90625 8.34009ZM14.3125 13.3713C14.4375 13.0901 14.5 12.7776 14.5 12.4651C14.5 11.0901 13.375 9.96509 12 9.96509C11.9688 9.96509 11.9375 9.96509 11.9375 9.96509C11.9688 10.1526 12 10.3088 12 10.4651C12 10.8088 11.9062 11.0901 11.7812 11.3713L14.3125 13.3713ZM15.9375 18.4651C14.7812 19.0901 13.4688 19.4651 12 19.4651C9.46875 19.4651 7.4375 18.3401 5.96875 16.9651C4.5 15.5901 3.53125 13.9651 3.0625 12.8713C2.96875 12.6213 2.96875 12.3401 3.0625 12.0901C3.375 11.3713 3.875 10.4651 4.59375 9.52759L5.75 10.4651C5.1875 11.1838 4.78125 11.9026 4.53125 12.4651C4.96875 13.4026 5.78125 14.7463 7 15.8713C8.28125 17.0588 9.9375 17.9651 12 17.9651C12.9375 17.9651 13.8125 17.7776 14.625 17.4338L15.9375 18.4651ZM13.1875 16.3088C12.8125 16.4026 12.4062 16.4651 11.9688 16.4651C9.78125 16.4651 7.96875 14.6838 7.96875 12.4651C7.96875 12.4026 8 12.3088 8 12.2151L9.75 13.5901C10.0625 14.2463 10.6875 14.7463 11.4375 14.9026L13.1875 16.3088Z" fill="#1C1C1E"/>
</svg>
