<svg width="24" height="25" viewBox="0 0 24 25" fill="none" xmlns="http://www.w3.org/2000/svg">
<g clip-path="url(#clip0_13_1393)">
<path d="M24 12.4651C24 5.83767 18.6274 0.465088 12 0.465088C5.37258 0.465088 0 5.83767 0 12.4651C0 18.4546 4.38823 23.4191 10.125 24.3193V15.9338H7.07812V12.4651H10.125V9.82134C10.125 6.81384 11.9165 5.15259 14.6576 5.15259C15.9705 5.15259 17.3438 5.38696 17.3438 5.38696V8.34009H15.8306C14.3399 8.34009 13.875 9.2651 13.875 10.2141V12.4651H17.2031L16.6711 15.9338H13.875V24.3193C19.6118 23.4191 24 18.4546 24 12.4651Z" fill="#1877F2"/>
<path d="M16.6711 15.9338L17.2031 12.4651H13.875V10.2141C13.875 9.2651 14.3399 8.34009 15.8306 8.34009H17.3437V5.38696C17.3437 5.38696 15.9705 5.15259 14.6576 5.15259C11.9165 5.15259 10.125 6.81384 10.125 9.82134V12.4651H7.07812V15.9338H10.125V24.3193C10.7359 24.4152 11.3621 24.4651 12 24.4651C12.6379 24.4651 13.2641 24.4152 13.875 24.3193V15.9338H16.6711Z" fill="white"/>
</g>
<defs>
<clipPath id="clip0_13_1393">
<rect width="24" height="24" fill="white" transform="translate(0 0.465088)"/>
</clipPath>
</defs>
</svg>
