<svg width="16" height="17" viewBox="0 0 16 17" fill="none" xmlns="http://www.w3.org/2000/svg">
<path d="M6.5 5.96509C6.5 6.30884 6.53125 6.62134 6.59375 6.93384C6.65625 7.18384 6.59375 7.43384 6.40625 7.62134L1.5 12.5276V14.9651H3.5V13.7151C3.5 13.3088 3.8125 12.9651 4.25 12.9651H5.5V11.7151C5.5 11.3088 5.8125 10.9651 6.25 10.9651H7.9375L8.84375 10.0588C9.03125 9.87134 9.28125 9.80884 9.53125 9.87134C9.84375 9.93384 10.1562 9.96509 10.5 9.96509C12.6875 9.96509 14.5 8.18384 14.5 5.96509C14.5 3.77759 12.6875 1.96509 10.5 1.96509C8.28125 1.96509 6.5 3.77759 6.5 5.96509ZM10.5 0.465088C13.5312 0.465088 16 2.93384 16 5.96509C16 9.02759 13.5312 11.4651 10.5 11.4651C10.1875 11.4651 9.90625 11.4651 9.625 11.4026L8.78125 12.2463C8.625 12.4026 8.4375 12.4651 8.25 12.4651H7V13.7151C7 14.1526 6.65625 14.4651 6.25 14.4651H5V15.7151C5 16.1526 4.65625 16.4651 4.25 16.4651H0.75C0.3125 16.4651 0 16.1526 0 15.7151V12.2151C0 12.0276 0.0625 11.8401 0.21875 11.6838L5.0625 6.84009C5 6.55884 5 6.27759 5 5.96509C5 2.93384 7.4375 0.465088 10.5 0.465088ZM11.5 5.96509C10.9375 5.96509 10.5 5.52759 10.5 4.96509C10.5 4.43384 10.9375 3.96509 11.5 3.96509C12.0312 3.96509 12.5 4.43384 12.5 4.96509C12.5 5.52759 12.0312 5.96509 11.5 5.96509Z" fill="#1C1C1E"/>
</svg>
