<svg width="24" height="27" viewBox="0 0 24 27" fill="none" xmlns="http://www.w3.org/2000/svg">
<g id="Gear" clip-path="url(#clip0_77_1701)">
<path id="Vector" d="M10.325 5.08528C10.751 3.18902 13.249 3.18902 13.675 5.08528C13.7389 5.37015 13.8642 5.6347 14.0407 5.85739C14.2172 6.08008 14.4399 6.25463 14.6907 6.36682C14.9414 6.47901 15.2132 6.52567 15.4838 6.50302C15.7544 6.48036 16.0162 6.38902 16.248 6.23643C17.791 5.22135 19.558 7.1284 18.618 8.79573C18.4769 9.04589 18.3924 9.32847 18.3715 9.62051C18.3506 9.91255 18.3938 10.2058 18.4975 10.4764C18.6013 10.7471 18.7627 10.9874 18.9687 11.178C19.1747 11.3686 19.4194 11.504 19.683 11.5732C21.439 12.0332 21.439 14.7307 19.683 15.1908C19.4192 15.2598 19.1742 15.3951 18.968 15.5857C18.7618 15.7763 18.6001 16.0167 18.4963 16.2875C18.3924 16.5583 18.3491 16.8518 18.3701 17.144C18.3911 17.4362 18.4757 17.719 18.617 17.9693C19.557 19.6355 17.791 21.5437 16.247 20.5286C16.0153 20.3762 15.7537 20.285 15.4832 20.2624C15.2128 20.2398 14.9412 20.2864 14.6906 20.3985C14.44 20.5105 14.2174 20.6849 14.0409 20.9073C13.8645 21.1298 13.7391 21.394 13.675 21.6786C13.249 23.5749 10.751 23.5749 10.325 21.6786C10.2611 21.3938 10.1358 21.1292 9.95929 20.9065C9.7828 20.6838 9.56011 20.5093 9.30935 20.3971C9.05859 20.2849 8.78683 20.2382 8.51621 20.2609C8.24559 20.2836 7.98375 20.3749 7.752 20.5275C6.209 21.5426 4.442 19.6355 5.382 17.9682C5.5231 17.718 5.60755 17.4354 5.62848 17.1434C5.64942 16.8514 5.60624 16.5581 5.50247 16.2875C5.3987 16.0169 5.23726 15.7765 5.03127 15.5859C4.82529 15.3954 4.58056 15.26 4.317 15.1908C2.561 14.7307 2.561 12.0332 4.317 11.5732C4.5808 11.5041 4.82578 11.3688 5.032 11.1782C5.23822 10.9877 5.39985 10.7472 5.50375 10.4764C5.60764 10.2056 5.65085 9.91214 5.62987 9.61991C5.60889 9.32767 5.5243 9.04491 5.383 8.79465C4.443 7.1284 6.209 5.22027 7.753 6.23535C8.753 6.89191 10.049 6.31094 10.325 5.08528Z" stroke="white" stroke-width="1.5" stroke-linecap="round" stroke-linejoin="round"/>
<path id="Vector_2" d="M12 16.6213C13.6569 16.6213 15 15.1709 15 13.3817C15 11.5925 13.6569 10.1421 12 10.1421C10.3431 10.1421 9 11.5925 9 13.3817C9 15.1709 10.3431 16.6213 12 16.6213Z" stroke="white" stroke-width="1.5" stroke-linecap="round" stroke-linejoin="round"/>
</g>
<defs>
<clipPath id="clip0_77_1701">
<rect width="24" height="25.917" fill="white" transform="translate(0 0.42334)"/>
</clipPath>
</defs>
</svg>
