<svg width="25" height="25" viewBox="0 0 25 25" fill="none" xmlns="http://www.w3.org/2000/svg">
<path d="M18.4062 13.0745C18.4062 13.1682 18.2656 15.9338 21.3125 17.387C20.75 19.1213 18.7812 22.9651 16.4844 22.9651C15.1719 22.9651 14.4219 22.1213 12.9219 22.1213C11.375 22.1213 10.5312 22.9651 9.35938 22.9651C7.10938 23.0588 4.95312 18.8401 4.34375 17.1057C3.875 15.7932 3.6875 14.5276 3.6875 13.3088C3.6875 9.13696 6.45312 7.12134 9.07812 7.07446C10.3438 7.07446 11.9375 7.96509 12.6406 7.96509C13.2969 7.96509 15.125 6.88696 16.8125 7.02759C18.5469 7.16821 19.8594 7.82446 20.75 9.09009C19.2031 10.0745 18.4062 11.3401 18.4062 13.0745ZM15.7812 5.38696C14.8438 6.46509 13.7188 7.07446 12.5 6.98071C12.4062 5.71509 12.875 4.54321 13.7188 3.60571C14.4688 2.76196 15.7812 2.05884 16.9062 1.96509C16.9062 2.48071 17.0469 3.88696 15.7812 5.38696Z" fill="#1C1C1E"/>
</svg>
