<svg width="24" height="25" viewBox="0 0 24 25" fill="none" xmlns="http://www.w3.org/2000/svg">
<path d="M16.6875 17.9651C17.8125 16.8088 18.5 15.2151 18.5 13.4651C18.5 9.90259 15.5625 6.96509 12 6.96509C8.40625 6.96509 5.5 9.90259 5.5 13.4651C5.5 15.2151 6.15625 16.8088 7.28125 17.9651C7.875 16.4963 9.3125 15.4651 11 15.4651H13C14.6562 15.4651 16.0938 16.4963 16.6875 17.9651ZM15.4375 18.9963C15.2188 17.8401 14.1875 16.9651 13 16.9651H11C9.78125 16.9651 8.75 17.8401 8.53125 18.9963C9.53125 19.6213 10.7188 19.9651 12 19.9651C13.25 19.9651 14.4375 19.6213 15.4375 18.9963ZM12 21.4651C9.125 21.4651 6.5 19.9651 5.0625 17.4651C3.625 14.9963 3.625 11.9651 5.0625 9.46509C6.5 6.99634 9.125 5.46509 12 5.46509C14.8438 5.46509 17.4688 6.99634 18.9062 9.46509C20.3438 11.9651 20.3438 14.9963 18.9062 17.4651C17.4688 19.9651 14.8438 21.4651 12 21.4651ZM12 12.9651C12.4375 12.9651 12.8438 12.7463 13.0625 12.3401C13.2812 11.9651 13.2812 11.4963 13.0625 11.0901C12.8438 10.7151 12.4375 10.4651 12 10.4651C11.5312 10.4651 11.125 10.7151 10.9062 11.0901C10.6875 11.4963 10.6875 11.9651 10.9062 12.3401C11.125 12.7463 11.5312 12.9651 12 12.9651ZM9.25 11.7151C9.25 10.7463 9.75 9.84009 10.625 9.34009C11.4688 8.87134 12.5 8.87134 13.375 9.34009C14.2188 9.84009 14.75 10.7463 14.75 11.7151C14.75 12.7151 14.2188 13.6213 13.375 14.1213C12.5 14.5901 11.4688 14.5901 10.625 14.1213C9.75 13.6213 9.25 12.7151 9.25 11.7151Z" fill="#1C1C1E"/>
</svg>
